# xmcd
# 
# Track frame offsets:
#     150
#     20432
#     40767
#     62622
#     84517
#     105147
#     131317
#     155710
#     175542
#     196535
#     215750
#     241095
#     261552
#     283595
#     311252
#     330845
# 
# Disc length: 4645
# 
# Revision: 0
# Processed by: cddbd v1.5.2PL0 Copyright (c) Steve Scherf et al.
# Submitted via: fre:ac v1.0.17
# 
DISCID=c5122310
DTITLE=島津亜矢 - 島津亜矢 2003年全曲集
DYEAR=2002
DGENRE=Blues
TTITLE0=夜桜挽花
TTITLE1=波
TTITLE2=北海峡
TTITLE3=道南夫婦船
TTITLE4=相生～ふたりの絆はほどけない～
TTITLE5=関の弥太っぺ
TTITLE6=感謝状～母へのメッセージ～
TTITLE7=都会の雀
TTITLE8=海鳴りの詩
TTITLE9=愛染かつらをもう一度
TTITLE10=一本刀土俵入り
TTITLE11=演歌桜
TTITLE12=母ごころ宅配便
TTITLE13=菊池寛原作「藤十郎の恋」より お梶
TTITLE14=憂き世春秋
TTITLE15=度胸船
EXTD=
EXTT0=
EXTT1=
EXTT2=
EXTT3=
EXTT4=
EXTT5=
EXTT6=
EXTT7=
EXTT8=
EXTT9=
EXTT10=
EXTT11=
EXTT12=
EXTT13=
EXTT14=
EXTT15=
PLAYORDER=
